<svg class="jw-svg-icon jw-svg-icon-forward" xmlns="http://www.w3.org/2000/svg" viewBox="0 0 240 240" focusable="false">
  <path d="M146.8,131.078a21.589,21.589,0,0,1,17.7-10.6,21.589,21.589,0,0,1,17.7,10.6,44.769,44.769,0,0,1,0,46.3,21.589,21.589,0,0,1-17.7,10.6,21.589,21.589,0,0,1-17.7-10.6,44.769,44.769,0,0,1,0-46.3Zm17.7,47.2c7.8,0,14.4-11,14.4-24.1s-6.6-24.1-14.4-24.1-14.4,11-14.4,24.1S156.6,178.278,164.5,178.278ZM128.1,187.978v-51l-4.8,4.8-6.8-6.8,13-13a4.8,4.8,0,0,1,8.2,3.4v62.7l-9.6-.1ZM25.9,57.778v125.3a4.867,4.867,0,0,0,4.8,4.8h62.7v-19.3H45.2v-96.4h125.3v19.3c0,5.3,3.6,7.2,8,4.3l41.8-27.9a6.013,6.013,0,0,0,2.7-8,5.887,5.887,0,0,0-2.7-2.7l-41.8-27.9c-4.4-2.9-8-1-8,4.3v19.3H30.8A4.974,4.974,0,0,0,25.9,57.778Z"/>
</svg>
